<?xml version="1.0" standalone="no"?>
<!DOCTYPE svg PUBLIC "-//W3C//DTD SVG 20010904//EN"
 "http://www.w3.org/TR/2001/REC-SVG-20010904/DTD/svg10.dtd">
<svg version="1.0" xmlns="http://www.w3.org/2000/svg"
 width="1023.000000pt" height="930.000000pt" viewBox="0 0 1023.000000 930.000000"
 preserveAspectRatio="xMidYMid meet">

<g transform="translate(0.000000,930.000000) scale(0.100000,-0.100000)"
fill="#000000" stroke="none">
<path d="M4756 7705 c-685 -86 -1280 -363 -1783 -831 -57 -53 -103 -102 -103
-110 0 -11 21 -14 106 -14 l106 0 71 66 c97 89 269 218 397 296 511 315 1063
463 1655 445 935 -30 1783 -485 2331 -1252 l46 -65 89 0 c67 0 89 3 89 13 0
18 -101 165 -203 296 -105 135 -341 372 -482 485 -356 285 -776 492 -1220 602
-252 62 -375 76 -700 80 -204 2 -322 -1 -399 -11z"/>
<path d="M4067 6520 c-442 -29 -797 -117 -1117 -277 -131 -65 -306 -170 -298
-179 2 -1 33 -6 68 -10 36 -3 104 -12 153 -18 l87 -12 68 49 c228 167 422 242
685 268 155 15 232 5 333 -46 90 -44 178 -135 252 -260 57 -98 64 -137 32
-178 -17 -22 -107 -63 -117 -53 -2 2 1 15 7 30 19 51 12 120 -14 149 -25 27
-81 47 -132 47 -47 0 -145 -20 -179 -37 -33 -17 -85 -62 -85 -75 0 -4 44 -8
99 -8 54 0 126 -3 160 -6 59 -7 61 -8 61 -35 0 -17 -11 -41 -27 -59 -24 -26
-38 -32 -103 -40 -41 -5 -102 -10 -135 -10 -39 0 -56 -3 -49 -10 5 -5 116 -12
254 -16 348 -9 510 13 518 71 2 13 -33 64 -103 149 -159 194 -205 267 -205
329 0 47 22 63 118 87 278 69 660 76 1051 20 74 -11 136 -18 139 -16 15 16
-303 86 -498 110 -287 36 -769 53 -1023 36z"/>
<path d="M1810 6358 c-84 -12 -134 -36 -138 -67 -7 -48 98 -126 254 -189 65
-26 74 -27 154 -19 47 4 155 6 240 3 l155 -6 -55 24 c-124 52 -220 112 -220
137 0 23 77 40 228 49 256 16 568 53 587 71 12 12 -1119 9 -1205 -3z"/>
<path d="M2018 5965 c-134 -19 -237 -49 -335 -97 -98 -47 -117 -65 -35 -33
129 52 302 54 453 4 230 -76 341 -189 468 -479 70 -159 139 -299 170 -344 145
-213 472 -348 1041 -430 130 -19 519 -58 532 -54 5 2 -60 16 -145 31 -185 33
-464 103 -602 150 -277 95 -423 176 -564 311 -130 126 -196 236 -225 379 -17
79 -22 232 -8 240 4 3 93 -5 197 -18 274 -34 562 -62 865 -85 284 -22 343 -30
460 -62 129 -35 222 -91 256 -153 10 -19 21 -35 24 -35 3 0 18 21 35 48 16 26
66 83 110 127 167 165 350 219 559 165 232 -59 403 -249 505 -560 44 -136 68
-263 92 -493 40 -381 93 -503 253 -578 73 -34 196 -53 279 -44 l59 7 -55 23
c-166 67 -240 178 -253 377 -13 205 14 273 118 298 60 15 173 8 274 -15 65
-16 72 -20 119 -76 84 -101 231 -236 297 -273 35 -19 99 -45 143 -58 74 -21
99 -23 325 -23 182 0 282 5 390 19 156 20 232 40 120 31 -97 -7 -435 12 -547
31 -110 18 -188 44 -228 76 -28 22 -70 107 -81 164 -8 43 13 69 65 84 20 5
122 15 226 20 356 19 694 61 923 114 112 26 148 43 67 30 -96 -15 -925 -8
-1145 10 -461 36 -626 73 -860 191 -126 63 -189 112 -348 269 -236 233 -304
324 -282 380 25 67 121 76 273 26 145 -49 188 -80 267 -190 37 -52 83 -110
101 -129 101 -100 320 -150 1079 -246 l45 -6 -65 42 c-119 77 -393 231 -578
325 -524 265 -876 363 -1309 364 -241 0 -423 -25 -738 -100 -277 -67 -505 -82
-830 -57 -110 9 -276 21 -370 27 -352 23 -542 46 -628 79 -42 16 -33 50 22 80
52 29 52 29 -90 60 -289 62 -679 87 -891 56z"/>
<path d="M6599 5929 c-53 -5 -127 -12 -165 -16 l-69 -8 155 -22 c423 -61 857
-211 1200 -418 51 -30 95 -54 97 -52 1 2 -33 35 -78 73 -176 151 -396 276
-623 352 -65 23 -120 43 -122 45 -7 7 171 -22 297 -49 256 -54 463 -127 694
-244 195 -99 350 -195 515 -319 148 -111 151 -112 110 -60 -76 99 -169 196
-250 261 -68 55 -135 93 -335 192 -363 180 -491 223 -779 261 -128 16 -479 19
-647 4z"/>
<path d="M1725 5677 c135 -46 238 -144 320 -307 96 -190 155 -501 155 -817 0
-112 0 -113 23 -113 30 0 1498 -113 1826 -141 134 -11 245 -18 247 -16 2 2
-71 16 -164 31 -436 71 -1067 169 -1345 211 -306 45 -357 58 -376 94 -6 10
-28 94 -50 187 -48 206 -107 389 -161 496 -104 208 -298 371 -455 384 l-60 4
40 -13z"/>
<path d="M1503 5630 c-87 -52 -159 -163 -194 -297 -30 -113 -37 -311 -14 -428
45 -238 171 -427 342 -512 65 -32 86 -37 161 -41 105 -5 177 18 244 77 l43 39
-75 -25 c-215 -72 -408 51 -494 316 -67 205 -65 425 5 562 31 62 105 135 162
163 l51 24 -39 11 c-22 6 -53 11 -70 11 -46 0 -128 -43 -164 -86 l-33 -39 6
30 c12 51 61 148 93 183 35 36 24 42 -24 12z"/>
<path d="M4938 5461 c-71 -28 -173 -105 -224 -169 -58 -74 -119 -197 -146
-297 -18 -68 -22 -106 -22 -260 0 -210 15 -279 88 -430 78 -158 192 -272 340
-340 97 -44 162 -58 276 -57 107 0 213 29 293 78 58 37 142 109 167 144 l21
30 -73 -39 c-266 -143 -539 -112 -733 83 -141 143 -181 254 -172 485 8 229 68
385 197 512 88 87 148 111 275 112 l90 0 -49 23 c-145 67 -319 23 -447 -114
-58 -62 -60 -63 -44 -25 35 84 112 181 187 238 65 48 56 57 -24 26z"/>
<path d="M8767 5027 c51 -58 52 -69 19 -212 -28 -126 -16 -264 34 -391 17 -42
29 -83 26 -90 -7 -19 -107 -67 -211 -102 -226 -75 -445 -124 -700 -157 -223
-28 -217 -35 30 -30 309 6 543 39 733 102 100 33 207 89 233 122 29 36 21 94
-25 191 -52 109 -69 200 -70 365 -1 154 -7 173 -70 217 l-31 22 32 -37z"/>
<path d="M2045 4023 c4 -26 21 -104 38 -173 l32 -125 83 -3 c57 -2 82 1 82 9
0 9 -62 275 -76 327 -2 8 -28 12 -85 12 l-81 0 7 -47z"/>
<path d="M4536 3414 c-218 -47 -350 -221 -333 -441 11 -141 90 -261 215 -326
111 -58 230 -72 347 -42 137 36 224 104 282 223 37 74 38 79 38 187 -1 99 -4
116 -29 169 -57 121 -185 213 -326 235 -82 14 -109 13 -194 -5z m215 -219 c46
-30 75 -77 90 -143 20 -98 -30 -204 -116 -243 -53 -24 -95 -24 -156 2 -75 33
-113 92 -117 185 -3 57 0 79 16 111 25 48 82 101 120 109 15 3 32 7 37 9 23 8
92 -8 126 -30z"/>
<path d="M5392 3414 c-73 -19 -103 -36 -144 -82 -45 -50 -61 -99 -56 -172 8
-112 64 -159 261 -221 136 -43 167 -64 167 -111 0 -21 -8 -34 -32 -49 -62 -39
-201 -9 -316 66 -29 20 -55 35 -57 33 -1 -2 -19 -36 -39 -77 -36 -70 -37 -74
-20 -92 28 -31 131 -77 224 -100 155 -39 314 -8 397 77 83 85 85 223 5 307
-37 39 -98 69 -218 106 -118 36 -154 60 -154 101 0 77 125 80 283 8 37 -17 69
-29 70 -27 2 2 20 39 40 82 l36 77 -50 26 c-116 58 -284 79 -397 48z"/>
<path d="M7175 3420 c-336 -69 -464 -451 -234 -695 92 -97 216 -142 365 -132
163 12 300 99 366 235 31 64 33 72 33 182 0 109 -2 118 -32 181 -84 171 -299
269 -498 229z m195 -192 c25 -13 59 -42 77 -66 122 -161 17 -394 -177 -394
-251 0 -318 366 -85 468 48 21 134 17 185 -8z"/>
<path d="M1885 3073 c-82 -191 -161 -376 -176 -411 l-28 -63 126 3 125 3 23
60 22 60 170 3 169 2 23 -65 23 -65 124 0 c106 0 124 2 124 16 0 8 -4 12 -10
9 -5 -3 -7 0 -5 8 3 7 -21 78 -54 158 -33 79 -104 252 -159 384 l-99 240 -125
3 -126 3 -147 -348z m316 -31 l47 -127 -95 -3 c-53 -1 -97 -1 -99 1 -5 5 89
257 96 257 3 0 26 -57 51 -128z"/>
<path d="M2652 3128 l3 -293 27 -52 c15 -28 33 -55 39 -59 8 -5 9 -3 4 6 -5 9
-4 11 4 6 6 -4 9 -11 6 -16 -6 -10 66 -70 110 -93 74 -36 219 -48 310 -23 112
30 184 89 232 191 l28 60 2 283 2 282 -119 0 -120 0 0 -252 c0 -227 -2 -257
-19 -295 -32 -69 -95 -96 -174 -73 -34 9 -50 21 -70 53 l-27 41 0 263 0 263
-121 0 -120 0 3 -292z"/>
<path d="M3489 3398 c0 -13 -1 -56 -2 -96 l-2 -72 118 0 117 0 0 -315 0 -315
120 0 120 0 2 313 3 312 118 3 117 3 0 94 0 95 -355 0 -355 0 -1 -22z"/>
<path d="M5960 3418 c-1 -5 -1 -793 -1 -805 1 -10 28 -13 101 -13 l99 0 3 158
3 157 168 0 169 0 -1 -157 -2 -158 108 0 108 0 -3 410 -2 411 -103 -3 -102 -3
-2 -165 -2 -165 -168 0 -168 0 -3 168 -2 167 -100 0 c-55 0 -100 -1 -100 -2z"/>
<path d="M7821 3011 l3 -411 103 0 103 0 0 115 0 115 108 0 c154 0 236 25 298
92 53 56 67 94 72 194 4 82 2 96 -22 147 -30 62 -69 100 -136 130 -41 19 -69
21 -288 25 l-243 4 2 -411z m413 236 c53 -16 79 -54 80 -116 2 -98 -60 -142
-194 -138 l-85 2 -3 119 c-1 66 0 126 2 133 7 17 144 17 200 0z"/>
<path d="M3027 2303 c-14 -13 -5 -24 96 -106 212 -173 387 -286 622 -401 432
-212 884 -316 1370 -316 695 0 1343 219 1895 642 158 121 205 163 196 176 -5
8 -43 12 -113 12 l-105 0 -62 -48 c-555 -433 -1286 -659 -1983 -613 -610 41
-1147 239 -1625 602 l-77 59 -104 0 c-57 0 -107 -3 -110 -7z"/>
</g>
</svg>
